<?xml version="1.0" encoding="utf-8"?>
<!-- Generator: Adobe Illustrator 23.0.2, SVG Export Plug-In . SVG Version: 6.00 Build 0)  -->
<svg version="1.1" id="图层_1" xmlns="http://www.w3.org/2000/svg" xmlns:xlink="http://www.w3.org/1999/xlink" x="0px" y="0px"
	 viewBox="0 0 537.41 537.41" style="enable-background:new 0 0 537.41 537.41;" xml:space="preserve">
<style type="text/css">
	.st0{fill:#0071BC;}
	.st1{fill:#FFFFFF;}
</style>
<g>
	<circle class="st0" cx="268.59" cy="268.59" r="250"/>
</g>
<g>
	<path class="st1" d="M457.12,83.65v19.92c0,8.2-1.61,13.38-4.83,15.53c-3.22,2.15-15.04,7.91-35.45,17.29
		c-20.41,9.38-39.99,20.41-58.74,33.11c7.22-10.55,13.82-18.36,19.78-23.44c5.96-5.08,14.01-11.43,24.17-19.04
		c-8.79-3.52-21-5.27-36.62-5.27c-24.22,0-50.34,4.79-78.37,14.36c-28.03,9.57-51.86,21-71.48,34.28
		c-19.63,13.28-29.44,24.42-29.44,33.4c0,4.69,2.98,8.55,8.94,11.57c5.96,3.03,15.53,5.37,28.71,7.03
		c13.18,1.66,29.64,2.78,49.37,3.37c19.72,0.59,44.04,0.88,72.95,0.88c21.09,0,34.67,0.78,40.72,2.34
		c6.05,1.57,9.08,5.18,9.08,10.84c0,7.23-3.57,15.48-10.69,24.76c-7.13,9.28-16.55,14.79-28.27,16.55
		c-18.16,2.93-32.62,5.42-43.36,7.47c-10.74,2.05-23.49,5.52-38.23,10.4c-14.75,4.88-31.11,11.92-49.07,21.09
		c-26.76,14.06-47.66,28.32-62.7,42.77c-15.04,14.46-22.56,27.25-22.56,38.38c0,9.57,5.37,17.04,16.11,22.41
		c10.74,5.38,26.17,8.06,46.29,8.06c69.33,0,139.94-31.15,211.82-93.46c0.39,19.14-1.71,35.99-6.3,50.54
		c-4.59,14.55-13.92,28.47-27.98,41.75c-11.72,11.13-28.86,21.78-51.42,31.93c-22.56,10.15-47.17,18.26-73.83,24.32
		c-26.66,6.05-51.71,9.08-75.15,9.08c-27.15,0-49.61-6.5-67.38-19.48c-17.77-12.99-26.66-30.22-26.66-51.71
		c0-15.62,4.29-31.15,12.89-46.58c8.59-15.43,21.78-30.22,39.55-44.38c17.77-14.16,40.28-27,67.53-38.53
		c27.25-11.52,58.64-20.6,94.19-27.25c5.08-0.98,7.62-2.54,7.62-4.69c0-2.34-2.98-3.76-8.94-4.25c-5.96-0.49-16.9-0.83-32.81-1.03
		c-15.92-0.19-29.93-0.88-42.04-2.05c-12.11-1.17-24.9-3.71-38.38-7.62c-13.87-4.29-24.56-11.81-32.08-22.56
		c-7.52-10.74-11.28-22.65-11.28-35.74c0-16.8,6.05-33.69,18.16-50.68c12.11-16.99,29.2-32.32,51.27-46
		c22.07-13.67,48.78-24.66,80.13-32.96c31.35-8.3,65.67-12.45,102.98-12.45c21.48,0,36.47,1.22,44.97,3.66
		c8.5,2.44,13.43,5.67,14.79,9.67C456.44,65.25,457.12,72.72,457.12,83.65z"/>
</g>
</svg>
