<?xml version="1.0" standalone="no"?>
<!DOCTYPE svg PUBLIC "-//W3C//DTD SVG 20010904//EN"
 "http://www.w3.org/TR/2001/REC-SVG-20010904/DTD/svg10.dtd">
<svg version="1.0" xmlns="http://www.w3.org/2000/svg"
 width="256.000000pt" height="256.000000pt" viewBox="0 0 256.000000 256.000000"
 preserveAspectRatio="xMidYMid meet">
<metadata>
Created by potrace 1.11, written by Peter Selinger 2001-2013
</metadata>
<g transform="translate(0.000000,256.000000) scale(0.100000,-0.100000)"
fill="#000000" stroke="none">
<path d="M1059 2534 c-529 -95 -942 -511 -1034 -1041 -19 -110 -19 -316 0
-426 18 -106 57 -229 101 -326 37 -80 142 -242 198 -304 l35 -39 -6 54 c-14
140 47 277 182 414 100 101 167 149 300 217 174 88 370 154 588 197 64 13 77
36 25 44 -18 3 -112 7 -208 10 -285 9 -427 43 -506 121 -72 73 -89 115 -89
226 0 92 1 98 43 181 70 142 226 282 415 372 173 82 424 149 607 161 47 3 101
9 120 12 l35 6 -50 23 c-80 37 -228 83 -321 99 -107 19 -331 18 -435 -1z"/>
<path d="M2240 2089 c0 -14 -8 -33 -17 -41 -10 -8 -97 -54 -193 -101 -96 -47
-199 -102 -229 -122 -29 -19 -56 -33 -59 -31 -6 6 130 143 178 179 19 14 32
28 29 31 -3 3 -42 11 -87 17 -263 35 -725 -116 -930 -304 -79 -74 -90 -126
-33 -160 63 -37 163 -47 571 -58 220 -6 407 -15 423 -21 56 -21 45 -104 -24
-182 -23 -26 -53 -53 -68 -60 -14 -8 -93 -25 -176 -40 -335 -57 -600 -170
-827 -354 -224 -180 -217 -340 17 -383 77 -14 276 -6 380 16 241 51 532 199
753 384 39 34 75 61 78 61 4 0 4 -40 1 -88 -19 -267 -155 -426 -481 -561 -222
-92 -472 -146 -716 -154 l-75 -2 110 -37 c156 -52 254 -68 416 -68 292 0 538
82 770 257 254 191 429 476 484 790 22 128 20 341 -5 463 -43 213 -140 422
-259 560 l-30 35 -1 -26z"/>
</g>
</svg>
